<svg width="25" height="25" viewBox="0 0 25 25" fill="none" xmlns="http://www.w3.org/2000/svg">
<path d="M12.4999 24.5833C10.886 24.5833 9.36936 24.2661 7.94992 23.6317C6.53047 22.9974 5.29575 22.1364 4.24575 21.0489C3.19575 19.9614 2.3645 18.6826 1.752 17.2125C1.1395 15.7423 0.833252 14.1715 0.833252 12.5C0.833252 10.8284 1.1395 9.2576 1.752 7.78746C2.3645 6.31732 3.19575 5.0385 4.24575 3.951C5.29575 2.8635 6.53047 2.00256 7.94992 1.36819C9.36936 0.733813 10.886 0.416626 12.4999 0.416626C14.1138 0.416626 15.6305 0.733813 17.0499 1.36819C18.4694 2.00256 19.7041 2.8635 20.7541 3.951C21.8041 5.0385 22.6353 6.31732 23.2478 7.78746C23.8603 9.2576 24.1666 10.8284 24.1666 12.5V14.252C24.1666 15.4402 23.7728 16.4522 22.9853 17.288C22.1978 18.1237 21.2305 18.5416 20.0833 18.5416C19.4027 18.5416 18.761 18.3906 18.1583 18.0885C17.5555 17.7864 17.0499 17.3534 16.6416 16.7895C16.0777 17.3736 15.4409 17.8116 14.7312 18.1036C14.0214 18.3956 13.2777 18.5416 12.4999 18.5416C10.886 18.5416 9.51033 17.9526 8.37284 16.7744C7.23534 15.5963 6.66659 14.1715 6.66659 12.5C6.66659 10.8284 7.23534 9.4036 8.37284 8.22548C9.51033 7.04736 10.886 6.45829 12.4999 6.45829C14.1138 6.45829 15.4895 7.04736 16.627 8.22548C17.7645 9.4036 18.3333 10.8284 18.3333 12.5V14.252C18.3333 14.7757 18.4985 15.2187 18.8291 15.5812C19.1596 15.9437 19.5777 16.125 20.0833 16.125C20.5888 16.125 21.0069 15.9437 21.3374 15.5812C21.668 15.2187 21.8333 14.7757 21.8333 14.252V12.5C21.8333 9.80135 20.9291 7.51558 19.1208 5.64267C17.3124 3.76975 15.1055 2.83329 12.4999 2.83329C9.89436 2.83329 7.68742 3.76975 5.87909 5.64267C4.07075 7.51558 3.16659 9.80135 3.16659 12.5C3.16659 15.1986 4.07075 17.4843 5.87909 19.3573C7.68742 21.2302 9.89436 22.1666 12.4999 22.1666H18.3333V24.5833H12.4999ZM12.4999 16.125C13.4721 16.125 14.2985 15.7725 14.9791 15.0677C15.6596 14.3628 15.9999 13.5069 15.9999 12.5C15.9999 11.493 15.6596 10.6371 14.9791 9.93225C14.2985 9.22739 13.4721 8.87496 12.4999 8.87496C11.5277 8.87496 10.7013 9.22739 10.0208 9.93225C9.3402 10.6371 8.99992 11.493 8.99992 12.5C8.99992 13.5069 9.3402 14.3628 10.0208 15.0677C10.7013 15.7725 11.5277 16.125 12.4999 16.125Z" fill="black"/>
</svg>
